<svg width="71" height="68" viewBox="0 0 71 68" fill="none" xmlns="http://www.w3.org/2000/svg">
<path d="M55.3785 36.9238C54.7658 37.2417 54.5267 37.9963 54.8446 38.609C56.1086 41.0453 56.7496 43.7269 56.7496 46.5794C56.7496 55.9093 49.1591 63.4997 39.8291 63.4997C35.7504 63.4997 31.8201 62.0899 28.7623 59.5302C27.3676 58.3628 25.621 57.7199 23.8438 57.7198L14.306 57.7194C10.8989 57.7194 7.68538 55.9093 5.91963 52.9954C4.99088 51.4628 4.5 49.7054 4.5 47.9134V45.5992C4.5 43.1324 5.8105 40.8058 7.92025 39.5274C8.51062 39.1697 8.69925 38.401 8.3415 37.8105C7.98375 37.2202 7.21513 37.0317 6.62463 37.3893C5.82675 37.8728 5.11375 38.4672 4.5 39.1455V35.2724C4.5 28.4058 5.37663 21.5545 7.10563 14.909C7.87825 11.9394 10.198 9.59591 13.1597 8.79316L28.6754 4.58754C29.7784 4.28829 30.9536 4.81141 31.47 5.83079L34.6224 12.0522C35.177 13.1467 35.2364 14.4288 34.7854 15.5698C34.3345 16.7108 33.4145 17.6059 32.2616 18.0255L25.5739 20.4594C23.7864 21.1099 21.8179 20.5253 20.6751 19.0049L19.1322 16.9523L19.9084 16.5893C20.5336 16.2968 20.8035 15.5528 20.511 14.9274C20.2185 14.3022 19.4745 14.0327 18.8491 14.3248L18.0715 14.6887C17.067 15.1585 15.8644 14.8049 15.274 13.866C14.9066 13.2817 14.135 13.1057 13.5504 13.4733C12.966 13.8407 12.7901 14.6124 13.1576 15.1969C13.878 16.3425 15.0254 17.0798 16.2767 17.3142L17.625 19.1078V19.5098C17.625 24.1623 19.325 28.6417 22.4116 32.1227C24.7961 34.8119 26.1094 38.2723 26.1094 41.8664V45.2084C26.1094 45.8988 26.669 46.4584 27.3594 46.4584C28.0497 46.4584 28.6094 45.8988 28.6094 45.2084V41.8664C28.6094 39.4514 28.1017 37.0883 27.142 34.9177C30.3709 31.4029 34.9095 29.3989 39.6995 29.3989C42.4541 29.3989 45.0826 30.035 47.5119 31.2897C48.1254 31.6067 48.8792 31.366 49.1961 30.7527C49.513 30.1393 49.2725 29.3853 48.6591 29.0684C45.911 27.649 42.8129 26.8989 39.6996 26.8989C34.497 26.8989 29.5522 28.9594 25.8986 32.6019C25.419 31.8529 24.8796 31.1377 24.2822 30.464C22.1747 28.0873 20.8123 25.1745 20.3255 22.0743C22.0868 23.2608 24.3361 23.57 26.429 22.8085L33.1168 20.3747C34.9412 19.7107 36.3969 18.2943 37.1105 16.4887C37.8241 14.683 37.7301 12.6542 36.8526 10.9222L33.7003 4.70079C32.6508 2.62966 30.2627 1.56716 28.0215 2.17454L12.5056 6.38029C8.68025 7.41716 5.68412 10.444 4.68613 14.2795C2.90375 21.1305 2 28.1935 2 35.2724V47.9134C2 50.1623 2.616 52.3677 3.7815 54.291C5.99738 57.9478 10.0301 60.2194 14.3059 60.2194L23.8436 60.2198C25.0351 60.2198 26.212 60.6557 27.1575 61.4472C30.6645 64.3829 35.1647 65.9997 39.8291 65.9997C50.5376 65.9997 59.2496 57.2878 59.2496 46.5794C59.2496 43.3682 58.4938 40.2139 57.0638 37.4577C56.7459 36.8449 55.9916 36.6058 55.3785 36.9238Z" fill="#ACB6C3" stroke="#ACB6C3" stroke-width="3"/>
<g opacity="0.5">
<mask id="path-2-inside-1" fill="white">
<path d="M70.8763 10.3011C70.6681 9.86813 70.2303 9.59275 69.7498 9.59275H64.5021L66.7666 3.69825C66.9142 3.31387 66.8631 2.8815 66.63 2.54212C66.3967 2.20275 66.0115 2 65.5997 2H57.0505C56.5158 2 56.0405 2.34 55.8676 2.84588L51.5471 15.4908C51.4167 15.8725 51.4785 16.2937 51.7132 16.622C51.9479 16.9501 52.3266 17.1449 52.73 17.1449H58.199L56.3968 25.7576C56.2783 26.324 56.5641 26.8977 57.0875 27.1444C57.2585 27.225 57.44 27.2637 57.6198 27.2637C57.9906 27.2637 58.3533 27.0986 58.5966 26.7942L70.7261 11.6234C71.0261 11.2481 71.0846 10.7341 70.8763 10.3011ZM59.9173 21.139L60.961 16.1509C61.0381 15.7824 60.945 15.3989 60.7076 15.1066C60.4702 14.8144 60.1138 14.6449 59.7375 14.6449H54.478L57.9443 4.5H63.7805L61.516 10.3945C61.3683 10.7789 61.4195 11.2113 61.6526 11.5506C61.8858 11.89 62.2711 12.0927 62.6828 12.0927H67.1501L59.9173 21.139Z"/>
</mask>
<path d="M70.8763 10.3011C70.6681 9.86813 70.2303 9.59275 69.7498 9.59275H64.5021L66.7666 3.69825C66.9142 3.31387 66.8631 2.8815 66.63 2.54212C66.3967 2.20275 66.0115 2 65.5997 2H57.0505C56.5158 2 56.0405 2.34 55.8676 2.84588L51.5471 15.4908C51.4167 15.8725 51.4785 16.2937 51.7132 16.622C51.9479 16.9501 52.3266 17.1449 52.73 17.1449H58.199L56.3968 25.7576C56.2783 26.324 56.5641 26.8977 57.0875 27.1444C57.2585 27.225 57.44 27.2637 57.6198 27.2637C57.9906 27.2637 58.3533 27.0986 58.5966 26.7942L70.7261 11.6234C71.0261 11.2481 71.0846 10.7341 70.8763 10.3011ZM59.9173 21.139L60.961 16.1509C61.0381 15.7824 60.945 15.3989 60.7076 15.1066C60.4702 14.8144 60.1138 14.6449 59.7375 14.6449H54.478L57.9443 4.5H63.7805L61.516 10.3945C61.3683 10.7789 61.4195 11.2113 61.6526 11.5506C61.8858 11.89 62.2711 12.0927 62.6828 12.0927H67.1501L59.9173 21.139Z" fill="#ACB6C3"/>
<path d="M64.5021 9.59275L59.8347 7.79966L57.225 14.5928H64.5021V9.59275ZM66.7666 3.69825L71.434 5.49134L71.4342 5.49091L66.7666 3.69825ZM66.63 2.54212L70.7513 -0.288907L70.7506 -0.289938L66.63 2.54212ZM55.8676 2.84588L51.1362 1.22901L51.1362 1.22924L55.8676 2.84588ZM51.5471 15.4908L46.8157 13.8741L46.8154 13.8748L51.5471 15.4908ZM51.7132 16.622L55.7804 13.7138L55.7802 13.7135L51.7132 16.622ZM58.199 17.1449L63.093 18.1689L64.3534 12.1449H58.199V17.1449ZM56.3968 25.7576L51.5028 24.7336L51.5028 24.7337L56.3968 25.7576ZM57.0875 27.1444L59.2198 22.6219L59.2188 22.6214L57.0875 27.1444ZM58.5966 26.7942L54.6913 23.6719L54.6907 23.6727L58.5966 26.7942ZM70.7261 11.6234L74.6313 14.7457L74.6314 14.7456L70.7261 11.6234ZM59.9173 21.139L55.0233 20.1151L63.8226 24.2614L59.9173 21.139ZM60.961 16.1509L56.067 15.1266L56.0669 15.1269L60.961 16.1509ZM54.478 14.6449L49.7466 13.0282L47.4857 19.6449H54.478V14.6449ZM57.9443 4.5V-0.5H54.369L53.2129 2.88333L57.9443 4.5ZM63.7805 4.5L68.4479 6.29309L71.0576 -0.5H63.7805V4.5ZM61.516 10.3945L56.8485 8.60141L56.8484 8.60184L61.516 10.3945ZM61.6526 11.5506L57.5313 14.3817L57.532 14.3827L61.6526 11.5506ZM67.1501 12.0927L71.0553 15.2151L77.5494 7.09275H67.1501V12.0927ZM75.3823 8.134C74.3417 5.97034 72.153 4.59275 69.7498 4.59275V14.5928C68.3077 14.5928 66.9945 13.7659 66.3704 12.4682L75.3823 8.134ZM69.7498 4.59275H64.5021V14.5928H69.7498V4.59275ZM69.1695 11.3858L71.434 5.49134L62.0992 1.90516L59.8347 7.79966L69.1695 11.3858ZM71.4342 5.49091C72.1723 3.56903 71.9165 1.40742 70.7513 -0.288907L62.5086 5.37316C61.8097 4.35558 61.6561 3.05872 62.099 1.90559L71.4342 5.49091ZM70.7506 -0.289938C69.585 -1.98589 67.6588 -3 65.5997 -3V7C64.3641 7 63.2085 6.39139 62.5094 5.37419L70.7506 -0.289938ZM65.5997 -3H57.0505V7H65.5997V-3ZM57.0505 -3C54.3771 -3 52.0004 -1.2998 51.1362 1.22901L60.599 4.46274C60.0805 5.9798 58.6546 7 57.0505 7V-3ZM51.1362 1.22924L46.8157 13.8741L56.2785 17.1074L60.599 4.46251L51.1362 1.22924ZM46.8154 13.8748C46.1638 15.7827 46.4723 17.889 47.6462 19.5305L55.7802 13.7135C56.4847 14.6985 56.6696 15.9623 56.2788 17.1067L46.8154 13.8748ZM47.646 19.5302C48.8195 21.1714 50.7131 22.1449 52.73 22.1449V12.1449C53.9401 12.1449 55.0762 12.7288 55.7804 13.7138L47.646 19.5302ZM52.73 22.1449H58.199V12.1449H52.73V22.1449ZM53.305 16.1209L51.5028 24.7336L61.2909 26.7816L63.093 18.1689L53.305 16.1209ZM51.5028 24.7337C50.9104 27.5654 52.3387 30.434 54.9561 31.6674L59.2188 22.6214C60.7894 23.3615 61.6463 25.0826 61.2909 26.7816L51.5028 24.7337ZM54.9551 31.6669C55.8072 32.0686 56.7186 32.2637 57.6198 32.2637V22.2637C58.1614 22.2637 58.7097 22.3814 59.2198 22.6219L54.9551 31.6669ZM57.6198 32.2637C59.467 32.2637 61.2837 31.4409 62.5025 29.9158L54.6907 23.6727C55.423 22.7564 56.5142 22.2637 57.6198 22.2637V32.2637ZM62.5018 29.9166L74.6313 14.7457L66.8208 8.50103L54.6913 23.6719L62.5018 29.9166ZM74.6314 14.7456C76.1309 12.87 76.424 10.3 75.3823 8.134L66.3704 12.4682C65.7452 11.1683 65.9213 9.62625 66.8207 8.50117L74.6314 14.7456ZM64.8114 22.1629L65.855 17.1748L56.0669 15.1269L55.0233 20.1151L64.8114 22.1629ZM65.8549 17.1752C66.2407 15.3317 65.7745 13.4143 64.5887 11.9543L56.8265 18.259C56.1154 17.3835 55.8354 16.233 56.067 15.1266L65.8549 17.1752ZM64.5887 11.9543C63.4011 10.4922 61.6186 9.64488 59.7375 9.64488V19.6449C58.6091 19.6449 57.5393 19.1365 56.8265 18.259L64.5887 11.9543ZM59.7375 9.64488H54.478V19.6449H59.7375V9.64488ZM59.2094 16.2615L62.6758 6.11667L53.2129 2.88333L49.7466 13.0282L59.2094 16.2615ZM57.9443 9.5H63.7805V-0.5H57.9443V9.5ZM59.113 2.70691L56.8485 8.60141L66.1834 12.1876L68.4479 6.29309L59.113 2.70691ZM56.8484 8.60184C56.1103 10.5237 56.366 12.6853 57.5313 14.3817L65.7739 8.71959C66.4729 9.7372 66.6264 11.0341 66.1836 12.1872L56.8484 8.60184ZM57.532 14.3827C58.6976 16.0787 60.6237 17.0927 62.6828 17.0927V7.09275C63.9185 7.09275 65.0741 7.70135 65.7732 8.71856L57.532 14.3827ZM62.6828 17.0927H67.1501V7.09275H62.6828V17.0927ZM63.2449 8.97039L56.0121 18.0166L63.8226 24.2614L71.0553 15.2151L63.2449 8.97039Z" fill="#ACB6C3" mask="url(#path-2-inside-1)"/>
<path d="M53.5 15.4998L57.5 3.99976L65.5 3.49976L62.5 10.9998L68.5 11.4998L59 22.9998L60 15.4998H53.5Z" fill="#ACB6C3" stroke="#ACB6C3"/>
</g>
</svg>
