<svg width="24" height="24" viewBox="0 0 24 24" fill="none" xmlns="http://www.w3.org/2000/svg">
<path fill-rule="evenodd" clip-rule="evenodd" d="M15.5346 6.36798H8.40076C7.26209 6.36798 6.33569 7.29438 6.33569 8.43305V15.5669C6.33569 16.7056 7.26209 17.6322 8.40076 17.6322H15.5346C16.6733 17.6322 17.6 16.7058 17.6 15.5669V8.43305C17.6 7.29438 16.6736 6.36798 15.5346 6.36798ZM11.9677 15.7082C9.92315 15.7082 8.25968 14.0448 8.25968 12C8.25968 9.95545 9.92315 8.29198 11.9677 8.29198C14.0125 8.29198 15.6759 9.95545 15.6759 12C15.6759 14.0445 14.0122 15.7082 11.9677 15.7082ZM14.9176 8.18131C14.9176 8.66505 15.3112 9.05865 15.7952 9.05865C16.2789 9.05865 16.6725 8.66505 16.6725 8.18131C16.6725 7.69758 16.2789 7.30398 15.7952 7.30398C15.3112 7.30398 14.9176 7.69758 14.9176 8.18131Z" fill="white"/>
<path d="M11.9677 9.85895C10.7875 9.85895 9.82642 10.8195 9.82642 11.9997C9.82642 13.1805 10.7875 14.1413 11.9677 14.1413C13.1485 14.1413 14.1088 13.1805 14.1088 11.9997C14.1088 10.8197 13.1483 9.85895 11.9677 9.85895Z" fill="white"/>
<path fill-rule="evenodd" clip-rule="evenodd" d="M0 11.9677C0 5.3584 5.3584 0 11.9677 0C18.5771 0 23.9355 5.3584 23.9355 11.9677C23.9355 18.5771 18.5771 23.9355 11.9677 23.9355C5.3584 23.9355 0 18.5771 0 11.9677ZM15.5347 19.1989C17.5376 19.1989 19.1667 17.5699 19.1667 15.5669V8.43307C19.1667 6.4304 17.5376 4.80107 15.5347 4.80107H8.40082C6.39816 4.80107 4.76882 6.4304 4.76882 8.43307V15.5669C4.76882 17.5699 6.39816 19.1989 8.40082 19.1989H15.5347Z" fill="white"/>
</svg>
