<svg width="24" height="24" viewBox="0 0 24 24" fill="none" xmlns="http://www.w3.org/2000/svg">
<path fill-rule="evenodd" clip-rule="evenodd" d="M23.8853 19.185C23.8381 19.0469 23.7279 18.834 23.6491 18.7117C23.1529 17.9625 20.4871 15.8762 19.1561 15.1939C18.3961 14.8035 17.833 14.6734 17.4156 14.7956C16.9667 14.9219 16.7304 15.1308 15.9783 16.0655C15.6751 16.4402 15.3641 16.7912 15.2814 16.8463C15.0766 16.9883 14.6749 17.1027 14.3914 17.1027C13.7338 17.0987 12.5407 16.6728 11.6232 16.1128C10.9104 15.679 9.99692 14.9021 9.29596 14.1331C8.469 13.23 7.90597 12.4333 7.46095 11.5342C6.88607 10.3787 6.74037 9.67272 6.98054 9.15607C7.03962 9.02594 7.11839 8.88795 7.15378 8.84451C7.18925 8.80513 7.55942 8.50143 7.9689 8.17015C8.77224 7.53129 8.90217 7.38538 9.0518 6.94762C9.24081 6.39152 9.18965 5.82363 8.89825 5.25182C8.67377 4.81799 8.08706 3.87151 7.6618 3.26024C7.09869 2.45575 5.69685 0.736288 5.41722 0.503542C4.9132 0.0934353 4.26747 0.0224056 3.55467 0.298523C2.80262 0.590364 1.39286 1.72614 0.790369 2.51884C0.246957 3.23658 0.0383229 3.7453 0.0067885 4.41574C-0.0207566 4.96784 0.0264792 5.19658 0.31788 5.90253C2.59784 11.4395 6.00002 15.8604 10.6742 19.3704C13.1156 21.2042 15.6475 22.6003 18.274 23.5547C19.8058 24.1107 20.4713 24.1383 21.2549 23.6809C21.5857 23.4836 22.4047 22.6436 22.8615 22.0324C23.6176 21.0149 23.8972 20.5456 23.9759 20.1709C24.031 19.9146 23.9877 19.469 23.8853 19.185Z" fill="white"/>
</svg>
