<svg width="60" height="64" viewBox="0 0 60 64" fill="none" xmlns="http://www.w3.org/2000/svg">
<g opacity="0.5">
<path d="M50.2816 18.3402C51.232 18.3402 52.0025 17.5694 52.0025 16.6185C52.0025 15.6676 51.232 14.8967 50.2816 14.8967C49.3312 14.8967 48.5608 15.6676 48.5608 16.6185C48.5608 17.5694 49.3312 18.3402 50.2816 18.3402Z" fill="#258AFF"/>
<path d="M43.0062 20.9366C42.335 20.2651 41.244 20.2616 40.5695 20.9331C39.8983 21.6046 39.8983 22.6962 40.566 23.3677C41.7706 24.5729 43.3676 25.2375 45.0712 25.2375C46.7748 25.2375 48.3752 24.5729 49.5764 23.3677C50.2475 22.6962 50.2475 21.6046 49.5729 20.9331C48.8984 20.2616 47.8073 20.2616 47.1362 20.9366C46.0383 22.0419 44.1075 22.0419 43.0062 20.9366Z" fill="#258AFF"/>
<path d="M40.1117 18.1993C41.0222 18.1993 41.7603 17.4608 41.7603 16.5498C41.7603 15.6389 41.0222 14.9004 40.1117 14.9004C39.2012 14.9004 38.4631 15.6389 38.4631 16.5498C38.4631 17.4608 39.2012 18.1993 40.1117 18.1993Z" fill="#258AFF"/>
<path d="M59.2845 12.4138C59.2397 12.3897 58.985 12.1831 58.4826 11.9076L57.2436 6.21553C56.717 3.91871 54.9273 2.10743 52.6317 1.57713L46.4366 0.154958C45.5418 -0.0516526 44.6022 -0.0516526 43.7074 0.154958L37.4882 1.57713C35.1926 2.10398 33.403 3.91871 32.8764 6.23619L31.6374 11.9076C31.1555 12.1831 30.8802 12.3656 30.8355 12.4138C30.0783 12.9889 29.9165 14.0667 30.4913 14.8243C30.7219 15.1239 30.9972 15.3305 31.3173 15.42C31.6374 19.5522 33.2446 23.409 35.7227 26.0019C38.1318 28.5053 41.367 29.8345 45.0841 29.8345C48.777 29.8345 52.0122 28.5019 54.4214 26.0019C57.3365 22.9716 58.5961 18.7465 58.8267 15.3959C59.1468 15.3029 59.4221 15.1204 59.6286 14.8209C60.2034 14.0667 60.0416 12.9889 59.2845 12.4138ZM51.9433 23.619C50.1778 25.4544 47.8581 26.3979 45.0841 26.3979C42.286 26.3979 39.9663 25.4578 38.2007 23.619C35.7227 21.0261 34.7831 17.1452 34.6901 14.2079C36.5934 13.3367 40.0351 12.2107 45.0841 12.2107C50.0642 12.2107 53.5265 13.3367 55.4332 14.2079C55.4298 17.0075 54.5108 20.9537 51.9433 23.619Z" fill="#258AFF"/>
</g>
<path d="M27.5855 15.6449C26.9524 14.7987 26.5002 13.8938 26.1701 12.9617C25.5053 12.8124 24.8134 12.7219 24.1215 12.7219H18.0887C13.1142 12.7219 9.04419 16.7941 9.04419 21.7713V42.8879C9.04419 44.5484 10.4009 45.9058 12.0605 45.9058H30.1497C31.8093 45.9058 33.166 44.5484 33.166 42.8879V28.7709C30.3893 25.1195 28.4583 20.5315 27.5855 15.6449ZM27.1333 39.8699H15.0724V21.7713C15.0724 20.1107 16.4291 18.7533 18.0887 18.7533H24.1169C25.7766 18.7533 27.1333 20.1107 27.1333 21.7713V39.8699Z" fill="#258AFF"/>
<path d="M25.6281 57.9691H16.5836C15.548 57.9691 14.6435 57.2633 14.3903 56.2543L11.3739 44.187C11.2066 43.5128 11.3558 42.7934 11.7854 42.2459C12.215 41.6984 12.8708 41.3772 13.5672 41.3772H28.64C29.3364 41.3772 29.9921 41.6984 30.4217 42.2459C30.8514 42.7934 31.0006 43.5128 30.8333 44.187L27.8169 56.2543C27.5682 57.2633 26.6637 57.9691 25.6281 57.9691Z" fill="#258AFF"/>
<path d="M21.1055 63.9999C19.4413 63.9999 18.0891 62.647 18.0891 60.982V54.9506C18.0891 53.2855 19.4413 51.9326 21.1055 51.9326C22.7697 51.9326 24.1218 53.2855 24.1218 54.9506V60.982C24.1173 62.6516 22.7697 63.9999 21.1055 63.9999Z" fill="#258AFF"/>
<path d="M12.0609 27.8025H3.01636C1.35216 27.8025 0 26.4542 0 24.7846C0 23.115 1.35216 21.7666 3.01636 21.7666H12.0609C13.7251 21.7666 15.0773 23.1195 15.0773 24.7846C15.0773 26.4496 13.7251 27.8025 12.0609 27.8025Z" fill="#258AFF"/>
</svg>
