<svg width="65" height="64" viewBox="0 0 65 64" fill="none" xmlns="http://www.w3.org/2000/svg">
<path opacity="0.5" d="M25.3718 44.0605C25.3718 34.2071 33.0454 26.1247 42.7276 25.4353V8.011C42.7276 3.5938 39.1338 0 34.7166 0H8.011C3.5938 0 0 3.5938 0 8.011V45.3944C0 49.8125 3.5938 53.4054 8.011 53.4054H27.8987C26.3008 50.6535 25.3718 47.4695 25.3718 44.0605ZM12.6619 32.5251C10.8997 30.763 7.7988 30.763 6.03661 32.5251L5.34425 33.2185V8.011C5.34425 6.5373 6.54121 5.33936 8.01589 5.33936H34.7205C36.1942 5.33936 37.3922 6.5373 37.3922 8.011V25.2075L35.3611 23.1764C33.5343 21.3496 30.5625 21.3496 28.7358 23.1764L16.0269 35.8852L12.6619 32.5251Z" fill="#ACB6C3"/>
<path d="M63.3995 59.4419L56.2334 52.2758C57.8235 49.9289 58.7496 47.1047 58.7496 44.0653C58.7496 35.9702 52.1604 29.3762 44.0605 29.3762C35.9614 29.3762 29.3723 35.9653 29.3723 44.0653C29.3723 52.1644 35.9614 58.7535 44.0605 58.7535C47.1937 58.7535 50.0932 57.7599 52.4802 56.0818L59.618 63.2196C60.1392 63.7398 60.8237 63.9999 61.5053 63.9999C62.1859 63.9999 62.8705 63.7398 63.3917 63.2196C64.441 62.1742 64.441 60.4834 63.3995 59.4419ZM44.0653 53.4092C38.9137 53.4092 34.7205 49.216 34.7205 44.0653C34.7205 38.9137 38.9137 34.7205 44.0653 34.7205C49.216 34.7205 53.4102 38.9137 53.4102 44.0653C53.4102 49.216 49.216 53.4092 44.0653 53.4092Z" fill="#ACB6C3"/>
</svg>
