<svg width="24" height="24" viewBox="0 0 24 24" fill="none" xmlns="http://www.w3.org/2000/svg">
<path d="M11.9146 23.8292C18.4949 23.8292 23.8292 18.4949 23.8292 11.9146C23.8292 5.33436 18.4949 0 11.9146 0C5.33436 0 0 5.33436 0 11.9146C0 18.4949 5.33436 23.8292 11.9146 23.8292Z" fill="#136CD5"/>
<path fill-rule="evenodd" clip-rule="evenodd" d="M11.4645 17.1403H12.3996C12.3996 17.1403 12.6821 17.1093 12.8263 16.9538C12.959 16.8111 12.9548 16.543 12.9548 16.543C12.9548 16.543 12.9365 15.2882 13.5189 15.1034C14.093 14.9214 14.8302 16.3162 15.6116 16.8525C16.2024 17.2584 16.6514 17.1694 16.6514 17.1694L18.7407 17.1403C18.7407 17.1403 19.8337 17.0729 19.3154 16.2136C19.273 16.1433 19.0136 15.5779 17.762 14.4162C16.452 13.2002 16.6274 13.3969 18.2055 11.2936C19.1665 10.0127 19.5508 9.23067 19.4308 8.89573C19.3163 8.57673 18.6095 8.66104 18.6095 8.66104L16.257 8.6757C16.257 8.6757 16.0827 8.65191 15.9533 8.72922C15.8269 8.80504 15.7456 8.98175 15.7456 8.98175C15.7456 8.98175 15.3733 9.97297 14.8767 10.8159C13.8292 12.5947 13.4104 12.6886 13.2392 12.5781C12.841 12.3207 12.9404 11.544 12.9404 10.9922C12.9404 9.26848 13.2018 8.54975 12.4313 8.3637C12.1755 8.30189 11.9874 8.26112 11.3334 8.25453C10.4941 8.24582 9.78361 8.25708 9.38134 8.45418C9.11373 8.58522 8.90729 8.87726 9.03303 8.89404C9.18849 8.91485 9.54064 8.98897 9.72733 9.2432C9.96839 9.57113 9.95989 10.3077 9.95989 10.3077C9.95989 10.3077 10.0984 12.3369 9.63642 12.589C9.31933 12.7619 8.88435 12.4089 7.95048 10.7951C7.47196 9.96851 7.11069 9.05481 7.11069 9.05481C7.11069 9.05481 7.04103 8.88405 6.91678 8.79273C6.76598 8.68207 6.55529 8.64681 6.55529 8.64681L4.31989 8.66147C4.31989 8.66147 3.98432 8.67081 3.86113 8.81673C3.75154 8.9465 3.85242 9.21496 3.85242 9.21496C3.85242 9.21496 5.60251 13.3094 7.58411 15.3728C9.4011 17.2645 11.4645 17.1403 11.4645 17.1403Z" fill="#001234"/>
</svg>
