<svg width="64" height="65" viewBox="0 0 64 65" fill="none" xmlns="http://www.w3.org/2000/svg">
<path d="M45.9536 38.3906L48.3722 35.9605" stroke="#ACB6C3" stroke-linecap="round" stroke-linejoin="round"/>
<path d="M25.3022 33.7175L27.7209 31.2874" stroke="#ACB6C3" stroke-linecap="round" stroke-linejoin="round"/>
<path d="M25.3025 7.10327L27.7211 4.67319" stroke="#ACB6C3" stroke-linecap="round" stroke-linejoin="round"/>
<rect y="64" width="17.9453" height="64" rx="5" transform="rotate(-90 0 64)" fill="#ACB6C3"/>
<path d="M0 32.8528L18 32.8528L18 39.905C18 42.1141 16.2091 43.905 14 43.905L4 43.905C1.79086 43.905 1.91275e-09 42.1141 1.45649e-09 39.905L0 32.8528Z" fill="#ACB6C3"/>
<path d="M3.55167 24.6748C1.59014 24.6748 -6.88501e-08 26.2649 -1.53781e-07 28.2265C-2.38712e-07 30.188 1.59014 31.7781 3.55167 31.7781L7.61112 31.7781C9.57265 31.7781 11.1628 30.188 11.1628 28.2265C11.1628 26.2649 9.57266 24.6748 7.61113 24.6748L3.55167 24.6748Z" fill="#ACB6C3"/>
<path d="M3.55167 8.22485C1.59014 8.22485 -6.88501e-08 9.81499 -1.53781e-07 11.7765C-2.38712e-07 13.738 1.59014 15.3282 3.55167 15.3282L7.61112 15.3282C9.57265 15.3282 11.1628 13.738 11.1628 11.7765C11.1628 9.81499 9.57266 8.22485 7.61113 8.22485L3.55167 8.22485Z" fill="#ACB6C3"/>
<path d="M2 24.6748C0.895433 24.6748 -3.87706e-08 25.5702 -8.65967e-08 26.6748L-2.20966e-07 29.7781C-2.68792e-07 30.8827 0.89543 31.7781 2 31.7781L9.16279 31.7781C10.2674 31.7781 11.1628 30.8827 11.1628 29.7781L11.1628 26.6748C11.1628 25.5702 10.2674 24.6748 9.16279 24.6748L2 24.6748Z" fill="#ACB6C3"/>
<path d="M2 8.22485C0.895433 8.22485 -3.87706e-08 9.12028 -8.65967e-08 10.2249L-2.20966e-07 13.3282C-2.68792e-07 14.4328 0.89543 15.3282 2 15.3282L9.16279 15.3282C10.2674 15.3282 11.1628 14.4328 11.1628 13.3282L11.1628 10.2249C11.1628 9.12028 10.2674 8.22485 9.16279 8.22485L2 8.22485Z" fill="#ACB6C3"/>
<path d="M56.4707 12.2944C56.4707 13.399 57.3661 14.2944 58.4707 14.2944L62.0001 14.2944C63.1047 14.2944 64.0001 13.399 64.0001 12.2944L64.0001 2.10977C64.0001 1.0052 63.1047 0.109766 62.0001 0.109766L58.4707 0.109766C57.3661 0.109766 56.4707 1.0052 56.4707 2.10977L56.4707 12.2944Z" fill="#D1D7DF"/>
<path d="M8.69751 16.4497C7.59294 16.4497 6.69751 17.3451 6.69751 18.4497L6.69751 21.553C6.69751 22.6576 7.59294 23.553 8.69751 23.553L15.8603 23.553C16.9649 23.553 17.8603 22.6576 17.8603 21.553L17.8603 18.4497C17.8603 17.3451 16.9649 16.4497 15.8603 16.4497L8.69751 16.4497Z" fill="#ACB6C3"/>
<path d="M8.69751 8.82529e-08C7.59294 3.95122e-08 6.69751 0.895431 6.69751 2L6.69751 5.10333C6.69751 6.2079 7.59294 7.10333 8.69751 7.10333L15.8603 7.10333C16.9649 7.10333 17.8603 6.2079 17.8603 5.10333L17.8603 2C17.8603 0.89543 16.9649 4.53062e-07 15.8603 4.04321e-07L8.69751 8.82529e-08Z" fill="#ACB6C3"/>
<path d="M15.07 24.6748C13.5287 24.6748 12.2793 25.9242 12.2793 27.4655L12.2793 28.9874C12.2793 30.5287 13.5287 31.7781 15.07 31.7781C16.6113 31.7781 17.8607 30.5287 17.8607 28.9874L17.8607 27.4655C17.8607 25.9242 16.6113 24.6748 15.07 24.6748Z" fill="#ACB6C3"/>
<path d="M15.0698 8.22485C13.5285 8.22485 12.2791 9.47429 12.2791 11.0156L12.2791 12.5375C12.2791 14.0787 13.5285 15.3282 15.0698 15.3282C16.611 15.3282 17.8604 14.0787 17.8604 12.5375L17.8604 11.0155C17.8604 9.47429 16.611 8.22485 15.0698 8.22485Z" fill="#ACB6C3"/>
<path d="M14.2793 24.6748C13.1747 24.6748 12.2793 25.5702 12.2793 26.6748L12.2793 29.7781C12.2793 30.8827 13.1747 31.7781 14.2793 31.7781L15.8607 31.7781C16.9653 31.7781 17.8607 30.8827 17.8607 29.7781L17.8607 26.6748C17.8607 25.5702 16.9653 24.6748 15.8607 24.6748L14.2793 24.6748Z" fill="#ACB6C3"/>
<path d="M14.2791 8.22485C13.1745 8.22485 12.2791 9.12028 12.2791 10.2249L12.2791 13.3282C12.2791 14.4328 13.1745 15.3282 14.2791 15.3282L15.8604 15.3282C16.965 15.3282 17.8604 14.4328 17.8604 13.3282L17.8604 10.2249C17.8604 9.12028 16.965 8.22485 15.8604 8.22485L14.2791 8.22485Z" fill="#ACB6C3"/>
<path d="M2 16.4497C0.895432 16.4497 -3.87706e-08 17.3451 -8.65967e-08 18.4497L-2.20966e-07 21.553C-2.68792e-07 22.6576 0.89543 23.553 2 23.553L3.58139 23.553C4.68596 23.553 5.5814 22.6576 5.5814 21.553L5.5814 18.4497C5.5814 17.3451 4.68597 16.4497 3.5814 16.4497L2 16.4497Z" fill="#ACB6C3"/>
<path d="M2 8.82529e-08C0.895432 3.95122e-08 -3.87706e-08 0.895431 -8.65967e-08 2L-2.20966e-07 5.10333C-2.68792e-07 6.2079 0.89543 7.10333 2 7.10333L3.58139 7.10333C4.68596 7.10333 5.5814 6.2079 5.5814 5.10333L5.5814 2C5.5814 0.89543 4.68597 2.06775e-07 3.5814 1.58034e-07L2 8.82529e-08Z" fill="#ACB6C3"/>
<path d="M34.2591 47.5991L25.3247 56.576C24.79 57.1132 24.5375 57.7298 24.7599 57.9532L26.5165 59.7182C26.7389 59.9416 27.352 59.6874 27.8867 59.1501L47.0745 39.8712C47.6105 39.3326 47.8635 38.7166 47.6412 38.4932L45.8845 36.7282C45.6622 36.5048 45.0491 36.759 44.5144 37.2963L35.58 46.2731L34.2597 47.5997L34.2591 47.5991Z" fill="#D1D7DF"/>
<path d="M13.9955 42.5042L5.06104 51.481C4.52632 52.0183 4.27387 52.6348 4.4962 52.8582L6.25286 54.6232C6.47519 54.8466 7.0883 54.5924 7.62302 54.0551L26.8108 34.7762C27.3469 34.2377 27.5999 33.6216 27.3775 33.3983L25.6209 31.6333C25.3985 31.4099 24.7854 31.6641 24.2507 32.2013L15.3163 41.1782L13.996 42.5047L13.9955 42.5042Z" fill="#D1D7DF"/>
<path d="M17.1453 12.3507L10.7402 18.7863C10.3568 19.1715 10.227 19.6649 10.4493 19.8882L12.206 21.6532C12.4283 21.8766 12.9188 21.7456 13.3022 21.3604L27.058 7.53927C27.4423 7.15316 27.5727 6.66031 27.3504 6.43693L25.5937 4.67193C25.3714 4.44854 24.8809 4.57956 24.4976 4.96473L18.0924 11.4003L17.1459 12.3513L17.1453 12.3507Z" fill="#D1D7DF"/>
<path d="M33.766 63.6262C33.2483 63.5055 31.8247 62.184 31.8247 59.4626C31.8247 56.3852 36.2898 54.7559 36.2898 51.8595C36.2898 48.9631 35.3191 48.782 33.766 46.4287" stroke="#D1D7DF" stroke-width="2" stroke-linecap="round" stroke-linejoin="round"/>
<path d="M39.1942 63.6262C38.6766 63.5055 37.253 62.184 37.2529 59.4626C37.2529 56.3852 41.718 54.7559 41.718 51.8595C41.718 48.9631 40.7473 48.782 39.1942 46.4287" stroke="#D1D7DF" stroke-width="2" stroke-linecap="round" stroke-linejoin="round"/>
<path opacity="0.7" d="M56.4705 14.3013C54.5882 14.2144 50.8235 14.9272 50.8235 18.474C50.8235 22.0207 54.5882 22.7335 56.4705 22.6466L56.4705 36.99" stroke="#ACB6C3" stroke-width="2"/>
</svg>
