<svg width="63" height="64" viewBox="0 0 63 64" fill="none" xmlns="http://www.w3.org/2000/svg">
<path d="M41.7578 4.90999L41.7565 4.91C40.0722 4.91456 38.7093 6.27556 38.7093 7.95855V11.8712L29.8766 3.23375L29.8764 3.23356C28.6925 2.07709 26.8004 2.07709 25.6165 3.23356L25.6164 3.23369L1.78912 26.526L1.78911 26.526L1.78602 26.5291C0.970442 27.3404 0.5 28.461 0.5 29.6117C0.5 31.9932 2.43945 33.9327 4.82093 33.9327H8.14185V47.444C8.14185 51.2314 11.2197 54.3135 15.0113 54.3135H29.0227C30.7049 54.3135 32.0712 52.9471 32.0712 51.2649C32.0712 49.5822 30.7044 48.2164 29.0188 48.2164H15.0075C14.5806 48.2164 14.2351 47.8709 14.2351 47.444V30.8879C14.2351 29.2062 12.8731 27.8394 11.1866 27.8394H9.16549L27.7464 9.67422L44.0829 25.6515L44.083 25.6517C45.2882 26.8295 47.2211 26.8087 48.3932 25.6053C49.5716 24.3995 49.5496 22.4707 48.347 21.2953C48.347 21.2953 48.3469 21.2952 48.3468 21.2951L44.8064 17.8316V7.95855C44.8064 6.2768 43.4444 4.90999 41.7578 4.90999Z" fill="#ACB6C3" stroke="#ACB6C3"/>
<path opacity="0.5" fill-rule="evenodd" clip-rule="evenodd" d="M36.6646 51.1044C36.6646 58.2151 42.3768 64 49.3997 64C56.4225 64 62.1348 58.2151 62.1348 51.1044C62.1348 41.2884 51.1115 31.7437 50.6415 31.3425C50.2823 31.0369 49.8429 30.884 49.3997 30.884C48.9565 30.884 48.517 31.0369 48.1579 31.3425C47.6879 31.7476 36.6646 41.2922 36.6646 51.1044Z" fill="#ACB6C3"/>
</svg>
